<?xml version="1.0" encoding="utf-8"?>
<!-- Generator: Adobe Illustrator 24.0.0, SVG Export Plug-In . SVG Version: 6.00 Build 0)  -->
<svg version="1.1" id="Capa_1" xmlns="http://www.w3.org/2000/svg" xmlns:xlink="http://www.w3.org/1999/xlink" x="0px" y="0px"
	 viewBox="0 0 51.6 51.6" style="enable-background:new 0 0 51.6 51.6;" xml:space="preserve">
<style type="text/css">
	.st0{fill-rule:evenodd;clip-rule:evenodd;fill:#B2BDD8;stroke:#41565E;stroke-width:2.4;stroke-miterlimit:10;}
	.st1{fill-rule:evenodd;clip-rule:evenodd;fill:#97A5C7;enable-background:new    ;}
	.st2{fill-rule:evenodd;clip-rule:evenodd;fill:#CBD2E5;}
	.st3{fill:none;stroke:#41565E;stroke-width:2.4;stroke-miterlimit:10;}
</style>
<g id="_x32_9">
	<path class="st0" d="M42.2,50.4H9.4c-4.5,0-8.2-3.7-8.2-8.2V9.4c0-4.5,3.7-8.2,8.2-8.2h32.9c4.5,0,8.2,3.7,8.2,8.2v32.9
		C50.4,46.7,46.7,50.4,42.2,50.4z"/>
	<path class="st1" d="M50.4,9.4v6c0-4.5-3.7-8.2-8.2-8.2H9.4c-4.5,0-8.2,3.7-8.2,8.2v-6c0-4.5,3.7-8.2,8.2-8.2h32.9
		C46.7,1.2,50.4,4.9,50.4,9.4z"/>
	<path class="st2" d="M50.4,36.2v6c0,4.5-3.7,8.2-8.2,8.2H9.4c-4.5,0-8.2-3.7-8.2-8.2v-6c0,4.5,3.7,8.2,8.2,8.2h32.9
		C46.7,44.3,50.4,40.7,50.4,36.2z"/>
	<path class="st3" d="M42.2,50.4H9.4c-4.5,0-8.2-3.7-8.2-8.2V9.4c0-4.5,3.7-8.2,8.2-8.2h32.9c4.5,0,8.2,3.7,8.2,8.2v32.9
		C50.4,46.7,46.7,50.4,42.2,50.4z"/>
	<path class="st0" d="M34.3,19c-1,0-1.9,0.9-1.9,1.9c0,1,0.8,1.9,1.9,1.9c1,0,1.9-0.8,1.9-1.9C36.1,19.9,35.3,19,34.3,19L34.3,19z"
		/>
	<path class="st0" d="M19.2,20.8c0-1-0.8-1.9-1.9-1.9c-1,0-1.9,0.9-1.9,1.9c0,1,0.8,1.9,1.9,1.9C18.4,22.7,19.2,21.9,19.2,20.8
		L19.2,20.8z"/>
	<polygon class="st0" points="17.3,35.1 34.3,35.1 34.3,35.1 	"/>
	<polygon class="st0" points="12.2,13.5 20.6,13.5 20.6,13.5 	"/>
	<polygon class="st0" points="31.1,13.5 39.4,13.5 39.4,13.5 	"/>
</g>
<g id="Layer_1">
</g>
</svg>
