<?xml version="1.0" encoding="utf-8"?>
<!-- Generator: Adobe Illustrator 24.0.0, SVG Export Plug-In . SVG Version: 6.00 Build 0)  -->
<svg version="1.1" id="Capa_1" xmlns="http://www.w3.org/2000/svg" xmlns:xlink="http://www.w3.org/1999/xlink" x="0px" y="0px"
	 viewBox="0 0 335.43 138.7" style="enable-background:new 0 0 335.43 138.7;" xml:space="preserve">
<style type="text/css">
	.st0{clip-path:url(#SVGID_2_);fill:#FFFFFF;}
	.st1{fill:#FFFFFF;}
</style>
<g>
	<g>
		<defs>
			<rect id="SVGID_1_" x="6.33" y="2.62" width="322.76" height="133.46"/>
		</defs>
		<clipPath id="SVGID_2_">
			<use xlink:href="#SVGID_1_"  style="overflow:visible;"/>
		</clipPath>
		<path class="st0" d="M55.68,68.42c-3.25-7.91-10.7-12.57-19.41-12.57c-8.68,0-16.14,4.66-19.4,12.57
			c-1.69,4.8-2.17,6.82-2.63,14.12h44.07C57.85,75.41,57.7,72.92,55.68,68.42 M38.61,118.37c8.85,0,14.28-2.62,20.64-8.99l5.9,4.65
			c-7.61,7.61-14.59,11.48-27.01,11.48c-20.64,0-31.81-13.34-31.81-38.32c0-24.22,11.17-38.35,29.94-38.35
			c18.79,0,29.95,13.51,29.95,36.49v3.56H14.25C14.25,107.99,22.63,118.37,38.61,118.37"/>
	</g>
	<polygon class="st1" points="94.89,2.62 94.89,136.08 117.85,136.08 117.85,129.08 102.8,129.08 102.8,9.61 117.85,9.61 
		117.85,2.62 	"/>
	<path class="st1" d="M163.61,88.9c-12.72,0-19.09,4.96-19.09,15.05c0,9.94,5.89,14.59,19.54,14.59c6.84,0,13.2-0.61,18.63-5.75
		c2.8-2.64,4.19-7.44,4.19-14.27V88.9H163.61z M186.88,117.14c-6.36,6.36-12.25,8.38-22.82,8.38c-11.16,0-17.23-1.87-22.02-6.82
		c-3.57-3.57-5.42-9-5.42-14.59c0-13.65,9.78-21.56,26.07-21.56h24.2v-8.38c0-11.96-5.74-18.32-21.1-18.32
		c-10.55,0-15.81,2.64-20.64,9.46l-5.74-4.96c6.36-8.85,14.12-11.49,26.38-11.49c19.86,0,29.01,8.85,29.01,24.53v51.2h-7.91V117.14z
		"/>
	<path class="st1" d="M252.01,55.84c-18.32,0-21.1,15.83-21.1,31.36c0,15.52,2.79,31.34,21.1,31.34c18.31,0,21.11-15.82,21.11-31.34
		C273.12,71.68,270.32,55.84,252.01,55.84 M273.12,114.96c-6.68,8.69-13.66,10.55-22.21,10.55c-7.9,0-14.42-2.64-18.3-6.51
		c-7.61-7.6-9.63-20.02-9.63-31.81c0-11.8,2.02-24.22,9.63-31.82c3.88-3.88,10.4-6.52,18.3-6.52c8.55,0,15.53,1.88,22.21,10.56V14.1
		h7.91v110.48h-7.91V114.96z"/>
	<polygon class="st1" points="306.12,2.62 306.12,9.13 321.65,9.13 321.65,129.56 306.12,129.56 306.12,136.08 329.09,136.08 
		329.09,2.62 	"/>
</g>
</svg>
