<?xml version="1.0" encoding="utf-8"?>
<!-- Generator: Adobe Illustrator 24.0.0, SVG Export Plug-In . SVG Version: 6.00 Build 0)  -->
<svg version="1.1" id="Capa_1" xmlns="http://www.w3.org/2000/svg" xmlns:xlink="http://www.w3.org/1999/xlink" x="0px" y="0px"
	 viewBox="0 0 105.81 98.07" style="enable-background:new 0 0 105.81 98.07;" xml:space="preserve">
<style type="text/css">
	.st0{fill:#B0CCD1;}
	.st1{fill:#203F4C;}
</style>
<g>
	<g>
		<path class="st1" d="M30.88,73.89L14.07,12.58H1V3.03h16.29c2.4,0,4.52,1.62,5.16,3.93l1.84,6.7h80.22l-9.66,35.23
			c-1.05,3.83-4.56,6.51-8.54,6.51H35.73l2.45,8.93h57.44v9.55H30.88z M33.1,45.85h52.66l6.21-22.63H26.9L33.1,45.85z"/>
		<path class="st1" d="M17.29,4.03c1.95,0,3.67,1.31,4.19,3.2l1.64,5.96l0.4,1.47h1.53h78.14l-9.32,33.97
			c-0.93,3.4-4.05,5.78-7.57,5.78H37.04h-2.62l0.69,2.53l1.9,6.93l0.4,1.47h1.53h55.68v7.55H31.64L15.24,13.05l-0.4-1.47h-1.53H2
			V4.03H17.29 M32.34,46.85h1.53H85h1.53l0.4-1.47l5.66-20.63l0.69-2.53h-2.62H28.21h-2.62l0.69,2.53l5.65,20.63L32.34,46.85
			 M17.29,2.03H0v11.55h13.31l16.81,61.31h66.5V63.34H38.94l-1.9-6.93H86.3c4.44,0,8.33-2.97,9.5-7.25l10.01-36.5H25.04L23.41,6.7
			C22.65,3.94,20.15,2.03,17.29,2.03L17.29,2.03z M33.86,44.85l-5.65-20.63h62.45L85,44.85H33.86L33.86,44.85z"/>
	</g>
</g>
<g>
	<g>
		<path class="st1" d="M43.01,97.07c-4.79,0-8.7-3.91-8.7-8.71c0-4.79,3.9-8.7,8.7-8.7c4.8,0,8.71,3.9,8.71,8.7
			C51.72,93.16,47.81,97.07,43.01,97.07z"/>
		<path class="st1" d="M43.01,80.66c4.25,0,7.71,3.45,7.71,7.7c0,4.25-3.46,7.71-7.71,7.71c-4.24,0-7.7-3.46-7.7-7.71
			C35.32,84.12,38.77,80.66,43.01,80.66 M43.01,78.66c-5.34,0-9.7,4.35-9.7,9.7c0,5.35,4.35,9.71,9.7,9.71
			c5.35,0,9.71-4.35,9.71-9.71C52.72,83.02,48.37,78.66,43.01,78.66L43.01,78.66z"/>
	</g>
</g>
<g>
	<g>
		<path class="st1" d="M80.22,97.07c-4.8,0-8.71-3.91-8.71-8.71c0-4.79,3.91-8.7,8.71-8.7c4.79,0,8.7,3.9,8.7,8.7
			C88.91,93.16,85.01,97.07,80.22,97.07z"/>
		<path class="st1" d="M80.22,80.66c4.24,0,7.7,3.45,7.7,7.7c0,4.25-3.45,7.71-7.7,7.71c-4.25,0-7.71-3.46-7.71-7.71
			C72.51,84.12,75.97,80.66,80.22,80.66 M80.22,78.66c-5.35,0-9.71,4.35-9.71,9.7c0,5.35,4.35,9.71,9.71,9.71
			c5.34,0,9.7-4.35,9.7-9.71C89.91,83.02,85.56,78.66,80.22,78.66L80.22,78.66z"/>
	</g>
</g>
</svg>
