<?xml version="1.0" encoding="utf-8"?>
<!-- Generator: Adobe Illustrator 24.0.0, SVG Export Plug-In . SVG Version: 6.00 Build 0)  -->
<svg version="1.1" id="Capa_1" xmlns="http://www.w3.org/2000/svg" xmlns:xlink="http://www.w3.org/1999/xlink" x="0px" y="0px"
	 viewBox="0 0 98.07 98.07" style="enable-background:new 0 0 98.07 98.07;" xml:space="preserve">
<style type="text/css">
	.st0{fill:#B0CCD1;}
	.st1{fill:#203F4C;}
</style>
<g>
	<g>
		<path class="st0" d="M49.04,47.74c-12.46,0-22.6-10.14-22.6-22.6c0-12.46,10.14-22.6,22.6-22.6s22.6,10.14,22.6,22.6
			C71.64,37.6,61.5,47.74,49.04,47.74z M49.04,11.89c-7.3,0-13.24,5.94-13.24,13.25c0,7.3,5.94,13.24,13.24,13.24
			c7.3,0,13.24-5.94,13.24-13.24C62.28,17.83,56.34,11.89,49.04,11.89z"/>
		<path class="st1" d="M49.04,3.84c11.74,0,21.3,9.55,21.3,21.3c0,11.74-9.55,21.3-21.3,21.3s-21.3-9.55-21.3-21.3
			C27.74,13.4,37.29,3.84,49.04,3.84 M49.04,39.68c8.02,0,14.54-6.52,14.54-14.54c0-8.02-6.52-14.55-14.54-14.55
			c-8.02,0-14.54,6.53-14.54,14.55C34.49,33.16,41.02,39.68,49.04,39.68 M49.04,1.24c-13.2,0-23.9,10.7-23.9,23.9
			c0,13.2,10.7,23.9,23.9,23.9c13.2,0,23.9-10.7,23.9-23.9C72.94,11.94,62.24,1.24,49.04,1.24L49.04,1.24z M49.04,37.08
			c-6.57,0-11.94-5.37-11.94-11.94c0-6.57,5.37-11.95,11.94-11.95s11.94,5.38,11.94,11.95C60.98,31.71,55.61,37.08,49.04,37.08
			L49.04,37.08z"/>
	</g>
	<g>
		<path class="st0" d="M4.37,95.52V78.9c0-14.62,29.5-22.59,44.66-22.59c15.16,0,44.66,7.97,44.66,22.59v16.63H4.37z M49.04,65.65
			c-15.58,0-34.3,7.62-35.73,12.98l-0.04,0.16v7.38h71.54v-7.45l-0.04-0.17C83.35,73.35,64.29,65.65,49.04,65.65z"/>
		<path class="st1" d="M49.04,57.61c15.29,0,43.36,8.08,43.36,21.29v15.33H5.67V78.9C5.67,65.69,33.75,57.61,49.04,57.61
			 M11.97,87.48h2.6h68.94h2.6v-2.6V78.9v-0.35l-0.09-0.33c-1.72-6.35-21.76-13.87-36.98-13.87c-15.24,0-35.28,7.56-36.98,13.94
			l-0.09,0.33v0.34v5.91V87.48 M49.04,55.01c-15.34,0-45.96,8-45.96,23.89v17.93h91.92V78.9C94.99,63.01,64.38,55.01,49.04,55.01
			L49.04,55.01z M14.57,84.88v-5.91c1.15-4.31,18.96-12.01,34.47-12.01c15.51,0,33.32,7.7,34.47,11.94v5.98H14.57L14.57,84.88z"/>
	</g>
</g>
</svg>
