<?xml version="1.0" encoding="utf-8"?>
<!-- Generator: Adobe Illustrator 24.0.0, SVG Export Plug-In . SVG Version: 6.00 Build 0)  -->
<svg version="1.1" id="Capa_1" xmlns="http://www.w3.org/2000/svg" xmlns:xlink="http://www.w3.org/1999/xlink" x="0px" y="0px"
	 viewBox="0 0 104.8 98.07" style="enable-background:new 0 0 104.8 98.07;" xml:space="preserve">
<style type="text/css">
	.st0{fill:#B0CCD1;}
	.st1{fill:#203F4C;}
</style>
<g>
	<g>
		<path class="st0" d="M18.13,96.1l-0.01-16.99h8.96V96.1H18.13z M37.75,72.4H13.7c-6.84,0-12.4-5.57-12.4-12.41V35.64
			c0-6.84,5.56-12.41,12.4-12.41h24.06l47.89-20.6v23.27l0.98,0.25c9.93,2.51,16.87,11.42,16.87,21.66s-6.94,19.14-16.87,21.66
			l-0.98,0.25V93L37.75,72.4z M43.16,30.67v34.31L76.69,79.4V16.24L43.16,30.67z M13.7,32.19c-1.9,0-3.45,1.55-3.45,3.46v24.34
			c0,1.91,1.55,3.46,3.45,3.46h20.5V32.19H13.7z M85.65,60.61l1.92-1.05c4.3-2.35,6.97-6.85,6.97-11.74c0-4.88-2.67-9.38-6.97-11.73
			l-1.92-1.05V60.61z"/>
		<path class="st1" d="M84.35,4.61V24.9v2.02l1.96,0.5c9.36,2.37,15.89,10.75,15.89,20.4c0,9.64-6.53,18.03-15.89,20.4l-1.96,0.5
			v2.02v20.3L38.51,71.31l-0.49-0.21h-0.54H13.7c-6.12,0-11.1-4.98-11.1-11.11V35.64c0-6.13,4.98-11.11,11.1-11.11h23.79h0.54
			l0.49-0.21L84.35,4.61 M77.99,81.37v-3.95V18.22v-3.95l-3.63,1.56L43.43,29.13l-1.57,0.68v1.71v32.59v1.71l1.57,0.68l30.94,13.31
			L77.99,81.37 M13.7,64.74h19.2h2.6v-2.6V33.49v-2.6h-2.6H13.7c-2.62,0-4.75,2.13-4.75,4.76v24.34
			C8.95,62.61,11.08,64.74,13.7,64.74 M84.35,62.8l3.85-2.11c4.72-2.58,7.65-7.52,7.65-12.88c0-5.36-2.93-10.29-7.65-12.87
			l-3.85-2.11v4.39v21.19V62.8 M25.79,80.42V94.8h-6.36l-0.01-14.39H25.79 M86.95,0.66L37.49,21.93H13.7C6.14,21.93,0,28.09,0,35.64
			v24.34C0,67.54,6.14,73.7,13.7,73.7h23.78l49.46,21.28V70.73c10.25-2.59,17.85-11.88,17.85-22.92S97.19,27.49,86.95,24.9V0.66
			L86.95,0.66z M75.39,77.42L44.46,64.12V31.52l30.94-13.31V77.42L75.39,77.42z M13.7,62.14c-1.18,0-2.15-0.96-2.15-2.16V35.64
			c0-1.18,0.96-2.16,2.15-2.16h19.2v28.66H13.7L13.7,62.14z M86.95,58.42V37.22c3.75,2.05,6.3,6.03,6.3,10.59
			C93.25,52.39,90.69,56.37,86.95,58.42L86.95,58.42z M28.39,77.82H16.82l0.01,19.59h11.55V77.82L28.39,77.82z"/>
	</g>
</g>
</svg>
