<?xml version="1.0" encoding="utf-8"?>
<!-- Generator: Adobe Illustrator 24.0.0, SVG Export Plug-In . SVG Version: 6.00 Build 0)  -->
<svg version="1.1" id="Capa_1" xmlns="http://www.w3.org/2000/svg" xmlns:xlink="http://www.w3.org/1999/xlink" x="0px" y="0px"
	 viewBox="0 0 104.8 98.07" style="enable-background:new 0 0 104.8 98.07;" xml:space="preserve">
<style type="text/css">
	.st0{fill:#B0CCD1;}
	.st1{fill:#203F4C;}
</style>
<g>
	<g>
		<path class="st1" d="M17.83,96.4l-0.01-17.59h9.56V96.4H17.83z M37.69,72.7H13.7c-7,0-12.7-5.7-12.7-12.71V35.64
			c0-7.01,5.7-12.71,12.7-12.71h24L85.95,2.18v23.5l0.75,0.19c10.07,2.54,17.1,11.57,17.1,21.95c0,10.38-7.03,19.4-17.1,21.95
			l-0.75,0.19v23.5L37.69,72.7z M43.46,30.86v33.91l32.94,14.17V16.7L43.46,30.86z M13.7,32.49c-1.74,0-3.15,1.42-3.15,3.16v24.34
			c0,1.74,1.41,3.16,3.15,3.16h20.2V32.49H13.7z M85.95,60.1l1.48-0.81c4.2-2.3,6.82-6.7,6.82-11.48c0-4.77-2.61-9.17-6.82-11.47
			l-1.48-0.81V60.1z"/>
		<path class="st1" d="M84.95,3.7v21.2v1.56l1.51,0.38c9.62,2.43,16.34,11.06,16.34,20.98c0,9.92-6.72,18.54-16.34,20.98l-1.51,0.38
			v1.56v21.21L38.28,71.86L37.9,71.7h-0.41H13.7C7.25,71.7,2,66.44,2,59.99V35.64c0-6.46,5.25-11.71,11.7-11.71h23.79h0.41
			l0.38-0.16L84.95,3.7 M77.39,80.46v-3.04V18.22v-3.04l-2.79,1.2L43.67,29.69l-1.21,0.52v1.32v32.59v1.32l1.21,0.52L74.6,79.26
			L77.39,80.46 M13.7,64.14h19.2h2v-2V33.49v-2h-2H13.7c-2.29,0-4.15,1.86-4.15,4.16v24.34C9.55,62.28,11.41,64.14,13.7,64.14
			 M84.95,61.79l2.96-1.62c4.53-2.48,7.34-7.21,7.34-12.36c0-5.14-2.81-9.87-7.34-12.35l-2.96-1.62v3.38v21.19V61.79 M26.39,79.82
			V95.4h-7.56l-0.01-15.58H26.39 M86.95,0.66L37.49,21.93H13.7C6.14,21.93,0,28.09,0,35.64v24.34C0,67.54,6.14,73.7,13.7,73.7h23.78
			l49.46,21.28V70.73c10.25-2.59,17.85-11.88,17.85-22.92S97.19,27.49,86.95,24.9V0.66L86.95,0.66z M75.39,77.42L44.46,64.12V31.52
			l30.94-13.31V77.42L75.39,77.42z M13.7,62.14c-1.18,0-2.15-0.96-2.15-2.16V35.64c0-1.18,0.96-2.16,2.15-2.16h19.2v28.66H13.7
			L13.7,62.14z M86.95,58.42V37.22c3.75,2.05,6.3,6.03,6.3,10.59C93.25,52.39,90.69,56.37,86.95,58.42L86.95,58.42z M28.39,77.82
			H16.82l0.01,19.58h11.55V77.82L28.39,77.82z"/>
	</g>
</g>
</svg>
