<?xml version="1.0" encoding="utf-8"?>
<!-- Generator: Adobe Illustrator 24.0.0, SVG Export Plug-In . SVG Version: 6.00 Build 0)  -->
<svg version="1.1" id="Capa_1" xmlns="http://www.w3.org/2000/svg" xmlns:xlink="http://www.w3.org/1999/xlink" x="0px" y="0px"
	 viewBox="0 0 105.81 98.07" style="enable-background:new 0 0 105.81 98.07;" xml:space="preserve">
<style type="text/css">
	.st0{fill:#B0CCD1;}
	.st1{fill:#203F4C;}
</style>
<g>
	<g>
		<path class="st0" d="M31.11,73.59L14.3,12.28h-13V3.33h15.99c2.27,0,4.27,1.53,4.87,3.71l1.9,6.92h80.05l-9.56,34.85
			c-1.02,3.7-4.41,6.29-8.25,6.29H35.34l2.61,9.53h57.37v8.95H31.11z M32.87,46.15h53.12l6.38-23.23H26.51L32.87,46.15z"/>
		<path class="st1" d="M17.29,4.63c1.68,0,3.17,1.13,3.61,2.75l1.64,5.96l0.52,1.91h1.98h77.36l-9.11,33.21
			c-0.86,3.14-3.74,5.34-7,5.34H37.04h-3.41l0.9,3.29l1.9,6.93l0.52,1.91h1.98h55.08v6.35H32.1L15.81,12.9l-0.52-1.91h-1.98H2.6
			V4.63H17.29 M31.88,47.45h1.98H85h1.98l0.52-1.91l5.66-20.63l0.9-3.29h-3.41H28.21H24.8l0.9,3.29l5.65,20.63L31.88,47.45
			 M17.29,2.03H0v11.55h13.31l16.81,61.31h66.5V63.34H38.94l-1.9-6.93H86.3c4.44,0,8.33-2.97,9.5-7.25l10.01-36.5H25.04L23.41,6.7
			C22.65,3.94,20.15,2.03,17.29,2.03L17.29,2.03z M33.86,44.85l-5.65-20.63h62.45L85,44.85H33.86L33.86,44.85z"/>
	</g>
</g>
<g>
	<g>
		<path class="st0" d="M43.01,96.77c-4.63,0-8.4-3.77-8.4-8.41c0-4.63,3.77-8.4,8.4-8.4c4.63,0,8.41,3.77,8.41,8.4
			C51.42,93,47.65,96.77,43.01,96.77z"/>
		<path class="st1" d="M43.01,81.26c3.92,0,7.11,3.18,7.11,7.1c0,3.92-3.19,7.11-7.11,7.11c-3.91,0-7.1-3.19-7.1-7.11
			C35.92,84.45,39.1,81.26,43.01,81.26 M43.01,78.66c-5.34,0-9.7,4.35-9.7,9.7c0,5.35,4.35,9.71,9.7,9.71
			c5.35,0,9.71-4.35,9.71-9.71C52.72,83.02,48.37,78.66,43.01,78.66L43.01,78.66z"/>
	</g>
</g>
<g>
	<g>
		<path class="st0" d="M80.22,96.77c-4.63,0-8.41-3.77-8.41-8.41c0-4.63,3.77-8.4,8.41-8.4c4.63,0,8.4,3.77,8.4,8.4
			C88.61,93,84.85,96.77,80.22,96.77z"/>
		<path class="st1" d="M80.22,81.26c3.91,0,7.1,3.18,7.1,7.1c0,3.92-3.18,7.11-7.1,7.11c-3.92,0-7.11-3.19-7.11-7.11
			C73.11,84.45,76.3,81.26,80.22,81.26 M80.22,78.66c-5.35,0-9.71,4.35-9.71,9.7c0,5.35,4.35,9.71,9.71,9.71
			c5.34,0,9.7-4.35,9.7-9.71C89.91,83.02,85.56,78.66,80.22,78.66L80.22,78.66z"/>
	</g>
</g>
</svg>
