<?xml version="1.0" encoding="utf-8"?>
<!-- Generator: Adobe Illustrator 24.0.0, SVG Export Plug-In . SVG Version: 6.00 Build 0)  -->
<svg version="1.1" id="Capa_1" xmlns="http://www.w3.org/2000/svg" xmlns:xlink="http://www.w3.org/1999/xlink" x="0px" y="0px"
	 viewBox="0 0 98.07 98.07" style="enable-background:new 0 0 98.07 98.07;" xml:space="preserve">
<style type="text/css">
	.st0{fill:#B0CCD1;}
	.st1{fill:#203F4C;}
</style>
<g>
	<g>
		<path class="st1" d="M49.04,48.04c-12.63,0-22.9-10.27-22.9-22.9s10.27-22.9,22.9-22.9c12.63,0,22.9,10.27,22.9,22.9
			S61.66,48.04,49.04,48.04z M49.04,12.19c-7.14,0-12.94,5.81-12.94,12.95c0,7.14,5.81,12.94,12.94,12.94s12.94-5.81,12.94-12.94
			C61.98,18,56.18,12.19,49.04,12.19z"/>
		<path class="st1" d="M49.04,3.24c12.07,0,21.9,9.82,21.9,21.9c0,12.07-9.82,21.9-21.9,21.9s-21.9-9.82-21.9-21.9
			C27.14,13.06,36.96,3.24,49.04,3.24 M49.04,39.08c7.69,0,13.94-6.26,13.94-13.94c0-7.69-6.26-13.95-13.94-13.95
			c-7.69,0-13.94,6.26-13.94,13.95C35.09,32.83,41.35,39.08,49.04,39.08 M49.04,1.24c-13.2,0-23.9,10.7-23.9,23.9
			c0,13.2,10.7,23.9,23.9,23.9c13.2,0,23.9-10.7,23.9-23.9C72.94,11.94,62.24,1.24,49.04,1.24L49.04,1.24z M49.04,37.08
			c-6.57,0-11.94-5.37-11.94-11.94c0-6.57,5.37-11.95,11.94-11.95s11.94,5.38,11.94,11.95C60.98,31.71,55.61,37.08,49.04,37.08
			L49.04,37.08z"/>
	</g>
	<g>
		<path class="st1" d="M4.07,95.83V78.9c0-14.81,29.7-22.89,44.96-22.89c15.26,0,44.96,8.08,44.96,22.89v16.93H4.07z M49.04,65.95
			c-15.16,0-34.06,7.6-35.44,12.75l-0.03,0.13v7.04h70.94v-7.11l-0.03-0.13C83.09,73.51,64.18,65.95,49.04,65.95z"/>
		<path class="st1" d="M49.04,57.01c6.95,0,18.29,1.8,27.96,5.83c5.97,2.49,15.99,7.88,15.99,16.06v15.93H5.07V78.9
			c0-8.17,10.02-13.57,16-16.06C30.75,58.81,42.09,57.01,49.04,57.01 M12.57,86.88h2h68.94h2v-2V78.9v-0.27l-0.07-0.26
			c-1.63-6.02-21.7-13.42-36.4-13.42c-14.72,0-34.79,7.44-36.4,13.5l-0.07,0.25v0.26v5.91V86.88 M49.04,55.01
			c-15.34,0-45.96,8-45.96,23.89v17.93h91.92V78.9C94.99,63.01,64.38,55.01,49.04,55.01L49.04,55.01z M14.57,84.88v-5.91
			c1.15-4.31,18.96-12.01,34.47-12.01s33.32,7.7,34.47,11.94v5.98H14.57L14.57,84.88z"/>
	</g>
</g>
</svg>
