<?xml version="1.0" encoding="utf-8"?>
<!-- Generator: Adobe Illustrator 24.0.0, SVG Export Plug-In . SVG Version: 6.00 Build 0)  -->
<svg version="1.1" id="Capa_1" xmlns="http://www.w3.org/2000/svg" xmlns:xlink="http://www.w3.org/1999/xlink" x="0px" y="0px"
	 viewBox="0 0 576.4 576.4" style="enable-background:new 0 0 576.4 576.4;" xml:space="preserve">
<style type="text/css">
	.st0{fill:#485C66;}
</style>
<path class="st0" d="M296.5,223.95c7.08,0,12.86,5.79,12.86,12.86c0,7.08-5.79,12.87-12.86,12.87s-12.86-5.79-12.86-12.87
	C283.64,229.73,289.42,223.95,296.5,223.95L296.5,223.95z M296.5,281.84c17.37,0,37.31,8.3,38.6,12.87v6.43H257.9v-6.37
	C259.19,290.14,279.13,281.84,296.5,281.84L296.5,281.84z M296.5,211.08c-14.22,0-25.73,11.51-25.73,25.73s11.51,25.73,25.73,25.73
	s25.73-11.51,25.73-25.73S310.72,211.08,296.5,211.08z M296.5,268.97c-17.17,0-51.46,8.62-51.46,25.73V314h102.92v-19.3
	C347.96,277.59,313.67,268.97,296.5,268.97z"/>
</svg>
