<?xml version="1.0" encoding="utf-8"?>
<!-- Generator: Adobe Illustrator 24.0.0, SVG Export Plug-In . SVG Version: 6.00 Build 0)  -->
<svg version="1.1" id="Capa_1" xmlns="http://www.w3.org/2000/svg" xmlns:xlink="http://www.w3.org/1999/xlink" x="0px" y="0px"
	 viewBox="0 0 72.51 67.82" style="enable-background:new 0 0 72.51 67.82;" xml:space="preserve">
<style type="text/css">
	.st0{fill:#203F4C;}
</style>
<g>
	<polygon class="st0" points="60.92,27.68 20.77,67.82 5.16,67.82 5.16,52.2 45.29,12.06 	"/>
	<polygon class="st0" points="9.3,16.46 0,16.46 0,9.31 9.3,9.31 9.3,0 16.46,0 16.46,9.31 25.77,9.31 25.77,16.46 16.46,16.46 
		16.46,25.77 9.3,25.77 	"/>
	<path class="st0" d="M71.44,17.15l-6.64,6.64L49.19,8.17l6.64-6.64c0.68-0.68,1.63-1.06,2.54-1.06c0.94,0,1.84,0.33,2.58,1.06
		l10.49,10.49C72.86,13.45,72.86,15.73,71.44,17.15z"/>
</g>
</svg>
