<?xml version="1.0" encoding="utf-8"?>
<!-- Generator: Adobe Illustrator 24.0.0, SVG Export Plug-In . SVG Version: 6.00 Build 0)  -->
<svg version="1.1" id="Capa_1" xmlns="http://www.w3.org/2000/svg" xmlns:xlink="http://www.w3.org/1999/xlink" x="0px" y="0px"
	 viewBox="0 0 51.72 68.14" style="enable-background:new 0 0 51.72 68.14;" xml:space="preserve">
<style type="text/css">
	.st0{fill:#203F4C;}
</style>
<g id="XMLID_1_">
	<g>
		<g>
			<g>
				<path class="st0" d="M43.47,23.33v-5.71C43.47,7.9,35.57,0,25.86,0C16.15,0,8.24,7.9,8.24,17.61v5.71H0V55.6
					c0,6.91,5.62,12.54,12.52,12.54h26.67c6.91,0,12.53-5.63,12.53-12.54V23.33H43.47z M25.86,7.66c5.49,0,9.96,4.46,9.96,9.96v5.71
					H15.91v-5.71C15.91,12.12,20.37,7.66,25.86,7.66z M29.69,46.67v6.66h-7.66v-6.66c-1.16-1.06-1.9-2.57-1.9-4.26
					c0-3.16,2.57-5.73,5.73-5.73c3.16,0,5.73,2.57,5.73,5.73C31.59,44.09,30.85,45.61,29.69,46.67z"/>
			</g>
		</g>
	</g>
</g>
</svg>
