<?xml version="1.0" encoding="utf-8"?>
<!-- Generator: Adobe Illustrator 24.0.0, SVG Export Plug-In . SVG Version: 6.00 Build 0)  -->
<svg version="1.1" id="Capa_1" xmlns="http://www.w3.org/2000/svg" xmlns:xlink="http://www.w3.org/1999/xlink" x="0px" y="0px"
	 viewBox="0 0 118.31 99.44" style="enable-background:new 0 0 118.31 99.44;" xml:space="preserve">
<style type="text/css">
	.st0{fill:#FFFFFF;}
</style>
<path class="st0" d="M116.43,11.65c-2.63,1.17-5.36,2.09-8.16,2.75c3.09-2.93,5.41-6.6,6.71-10.69l0,0c0.37-1.17-0.9-2.18-1.95-1.55
	l0,0c-3.9,2.31-8.09,4.04-12.47,5.15c-0.25,0.06-0.52,0.1-0.78,0.1c-0.8,0-1.57-0.3-2.18-0.83C92.94,2.46,86.95,0.2,80.72,0.2
	c-2.69,0-5.41,0.42-8.08,1.25c-8.27,2.57-14.65,9.39-16.65,17.8c-0.75,3.16-0.95,6.32-0.6,9.39c0.04,0.35-0.13,0.6-0.23,0.72
	c-0.18,0.2-0.44,0.32-0.7,0.32c-0.03,0-0.06,0-0.09,0c-18.1-1.68-34.43-10.4-45.97-24.56l0,0C7.8,4.39,6.67,4.48,6.2,5.28l0,0
	C3.95,9.16,2.75,13.6,2.75,18.11c0,6.91,2.78,13.43,7.6,18.18c-2.03-0.48-3.99-1.24-5.82-2.25l0,0c-0.88-0.49-1.97,0.14-1.98,1.15
	l0,0C2.43,45.46,8.44,54.6,17.45,58.72c-0.18,0-0.36,0.01-0.54,0.01c-1.43,0-2.87-0.14-4.3-0.41l0,0c-0.99-0.19-1.83,0.75-1.52,1.72
	l0,0c2.92,9.13,10.79,15.86,20.19,17.39c-7.81,5.24-16.9,8.01-26.36,8.01l-2.95,0c-0.91,0-1.68,0.59-1.91,1.47
	c-0.23,0.87,0.19,1.78,0.97,2.23c10.66,6.21,22.83,9.49,35.18,9.49c10.81,0,20.93-2.15,30.06-6.38c8.37-3.88,15.78-9.43,22-16.48
	c5.8-6.57,10.33-14.16,13.47-22.56c3-8,4.58-16.54,4.58-24.69v-0.39c0-1.31,0.59-2.54,1.62-3.38c3.92-3.18,7.33-6.93,10.14-11.13
	l0,0C118.82,12.5,117.65,11.11,116.43,11.65L116.43,11.65z"/>
</svg>
