<?xml version="1.0" encoding="utf-8"?>
<!-- Generator: Adobe Illustrator 24.0.0, SVG Export Plug-In . SVG Version: 6.00 Build 0)  -->
<svg version="1.1" id="Capa_1" xmlns="http://www.w3.org/2000/svg" xmlns:xlink="http://www.w3.org/1999/xlink" x="0px" y="0px"
	 viewBox="0 0 24.28 24.27" style="enable-background:new 0 0 24.28 24.27;" xml:space="preserve">
<style type="text/css">
	.st0{fill:#203F4C;}
</style>
<path class="st0" d="M12.14,2.6c1.91,0,3.47,1.56,3.47,3.47c0,1.91-1.56,3.47-3.47,3.47c-1.91,0-3.47-1.56-3.47-3.47
	C8.67,4.16,10.23,2.6,12.14,2.6 M12.14,0C8.79,0,6.07,2.71,6.07,6.07c0,3.35,2.72,6.07,6.07,6.07c3.35,0,6.07-2.72,6.07-6.07
	C18.21,2.71,15.49,0,12.14,0L12.14,0z"/>
<path class="st0" d="M12.14,16.25c4.21,0,9.54,2.15,9.54,3.47v1.95H2.6v-1.95C2.6,18.4,7.93,16.25,12.14,16.25 M12.14,13.65
	C8.09,13.65,0,15.69,0,19.72v4.55h24.28v-4.55C24.28,15.69,16.19,13.65,12.14,13.65L12.14,13.65z"/>
</svg>
