<?xml version="1.0" encoding="utf-8"?>
<!-- Generator: Adobe Illustrator 24.0.0, SVG Export Plug-In . SVG Version: 6.00 Build 0)  -->
<svg version="1.1" id="Capa_1" xmlns="http://www.w3.org/2000/svg" xmlns:xlink="http://www.w3.org/1999/xlink" x="0px" y="0px"
	 viewBox="0 0 102.25 98.07" style="enable-background:new 0 0 102.25 98.07;" xml:space="preserve">
<style type="text/css">
	.st0{fill:#B0CCD1;}
	.st1{fill:#203F4C;}
</style>
<g>
	<g>
		<polygon class="st1" points="14.12,36.55 14.12,23.43 1,23.43 1,15.34 14.12,15.34 14.12,2.22 22.21,2.22 22.21,15.34 
			35.34,15.34 35.34,23.43 22.21,23.43 22.21,36.55 		"/>
		<path class="st1" d="M21.21,3.22v11.12v2h2h11.12v6.09H23.21h-2v2v11.12h-6.09V24.43v-2h-2H2v-6.09h11.12h2v-2V3.22H21.21
			 M23.21,1.22H13.12v13.12H0v10.09h13.12v13.12h10.09V24.43h13.12V14.34H23.21V1.22L23.21,1.22z"/>
	</g>
</g>
<g>
	<g>
		<path class="st1" d="M70.77,12.74l8.66-8.66c0.75-0.75,1.82-1.19,2.87-1.19c1.13,0,2.15,0.41,2.94,1.2l14.8,14.8
			c1.6,1.6,1.6,4.21,0,5.81l-8.66,8.66L70.77,12.74z"/>
		<path class="st1" d="M82.31,3.89c0.87,0,1.63,0.3,2.23,0.9l14.8,14.8c0.59,0.59,0.91,1.37,0.91,2.2s-0.32,1.61-0.91,2.2
			l-7.95,7.95L72.19,12.74l7.95-7.95C80.7,4.22,81.51,3.89,82.31,3.89 M82.31,1.89c-1.28,0-2.61,0.51-3.58,1.49l-9.37,9.37
			l22.02,22.02l9.37-9.37c2-2,2-5.22,0-7.22l-14.8-14.8C84.92,2.35,83.64,1.89,82.31,1.89L82.31,1.89z"/>
	</g>
	<g>
		<path class="st1" d="M8.27,95.85V75.24l55.61-55.61l11.4,11.4l9.21,9.2L28.88,95.85H8.27z M16.95,78.84v8.34h8.34l46.93-46.93
			l-8.34-8.34L16.95,78.84z"/>
		<path class="st1" d="M63.88,21.05l10.69,10.7l8.5,8.49L28.46,94.85H9.27V75.66L63.88,21.05 M15.95,88.18h2h6.92h0.83l0.59-0.59
			l45.93-45.93l1.41-1.41l-1.42-1.41l-2.36-2.36l-4.56-4.56l-1.41-1.42l-1.41,1.41L16.53,77.84l-0.59,0.59v0.83v6.92V88.18
			 M63.88,18.22L7.27,74.83v22.02h22.02L85.9,40.24l-9.92-9.91L63.88,18.22L63.88,18.22z M17.95,86.18v-6.92l45.93-45.93l4.56,4.56
			l2.36,2.36L24.87,86.18H17.95L17.95,86.18z"/>
	</g>
</g>
</svg>
