<?xml version="1.0" encoding="utf-8"?>
<!-- Generator: Adobe Illustrator 24.0.0, SVG Export Plug-In . SVG Version: 6.00 Build 0)  -->
<svg version="1.1" id="Capa_1" xmlns="http://www.w3.org/2000/svg" xmlns:xlink="http://www.w3.org/1999/xlink" x="0px" y="0px"
	 viewBox="0 0 98.07 98.07" style="enable-background:new 0 0 98.07 98.07;" xml:space="preserve">
<style type="text/css">
	.st0{fill:#B0CCD1;}
	.st1{fill:#203F4C;}
</style>
<g id="XMLID_3_">
	<g>
		<g>
			<g>
				<path class="st0" d="M29.26,95.7c-8.95,0-16.23-7.29-16.23-16.25V35.57h11.54v-9.3c0-12.88,10.48-23.36,23.36-23.36
					c12.88,0,23.36,10.48,23.36,23.36v9.3h11.54v43.88c0,8.96-7.28,16.25-16.23,16.25H29.26z M21.15,79.45
					c0,4.48,3.64,8.12,8.11,8.12H66.6c4.47,0,8.11-3.64,8.11-8.12V43.71H21.15V79.45z M47.93,11.04c-8.4,0-15.23,6.83-15.23,15.23
					v9.3h30.46v-9.3C63.16,17.87,56.33,11.04,47.93,11.04z"/>
				<path class="st1" d="M47.93,4.21c12.16,0,22.06,9.9,22.06,22.06v8v2.6h2.6h8.94v42.58c0,8.25-6.7,14.95-14.93,14.95H29.26
					c-8.23,0-14.93-6.71-14.93-14.95V36.87h8.94h2.6v-2.6v-8C25.87,14.11,35.77,4.21,47.93,4.21 M31.4,36.87H34h27.87h2.6v-2.6v-8
					c0-9.12-7.42-16.53-16.53-16.53c-9.12,0-16.53,7.42-16.53,16.53v8V36.87 M29.26,88.87H66.6c5.19,0,9.41-4.22,9.41-9.42V45.01
					v-2.6h-2.6H22.45h-2.6v2.6v34.44C19.85,84.64,24.07,88.87,29.26,88.87 M47.93,1.61c-13.6,0-24.66,11.06-24.66,24.66v8H11.73
					v45.18c0,9.68,7.87,17.55,17.53,17.55H66.6c9.67,0,17.53-7.88,17.53-17.55V34.27H72.59v-8C72.59,12.68,61.53,1.61,47.93,1.61
					L47.93,1.61z M34,34.27v-8c0-7.68,6.25-13.93,13.93-13.93s13.93,6.25,13.93,13.93v8H34L34,34.27z M29.26,86.27
					c-3.76,0-6.81-3.05-6.81-6.82V45.01h50.96v34.44c0,3.76-3.05,6.82-6.81,6.82H29.26L29.26,86.27z"/>
			</g>
		</g>
		<g>
			<g>
				<path class="st0" d="M43.87,74.97v-8.61l-0.43-0.39c-1.42-1.28-2.23-3.1-2.23-5c0-3.71,3.02-6.72,6.72-6.72s6.72,3.02,6.72,6.72
					c0,1.89-0.81,3.71-2.23,5l-0.43,0.39v8.61H43.87z"/>
				<path class="st1" d="M47.93,55.56c2.99,0,5.42,2.43,5.42,5.42c0,1.53-0.66,3-1.8,4.03l-0.86,0.77v1.15v6.73h-5.53v-6.73v-1.15
					l-0.86-0.77c-1.15-1.04-1.8-2.51-1.8-4.03C42.51,57.99,44.94,55.56,47.93,55.56 M47.93,52.96c-4.42,0-8.02,3.6-8.02,8.02
					c0,2.36,1.03,4.49,2.66,5.96v9.33h10.73v-9.33c1.63-1.47,2.66-3.6,2.66-5.96C55.95,56.56,52.35,52.96,47.93,52.96L47.93,52.96z"
					/>
			</g>
		</g>
	</g>
</g>
</svg>
