<?xml version="1.0" encoding="utf-8"?>
<!-- Generator: Adobe Illustrator 24.0.0, SVG Export Plug-In . SVG Version: 6.00 Build 0)  -->
<svg version="1.1" id="Capa_1" xmlns="http://www.w3.org/2000/svg" xmlns:xlink="http://www.w3.org/1999/xlink" x="0px" y="0px"
	 viewBox="0 0 102.25 98.07" style="enable-background:new 0 0 102.25 98.07;" xml:space="preserve">
<style type="text/css">
	.st0{fill:#B0CCD1;}
	.st1{fill:#203F4C;}
</style>
<g>
	<g>
		<polygon class="st0" points="14.42,36.26 14.42,23.13 1.3,23.13 1.3,15.64 14.42,15.64 14.42,2.52 21.91,2.52 21.91,15.64 
			35.04,15.64 35.04,23.13 21.91,23.13 21.91,36.26 		"/>
		<path class="st1" d="M20.61,3.82v10.52v2.6h2.6h10.52v4.89H23.21h-2.6v2.6v10.52h-4.89V24.43v-2.6h-2.6H2.6v-4.89h10.52h2.6v-2.6
			V3.82H20.61 M23.21,1.22H13.12v13.12H0v10.09h13.12v13.12h10.09V24.43h13.12V14.34H23.21V1.22L23.21,1.22z"/>
	</g>
</g>
<g>
	<g>
		<path class="st0" d="M71.2,12.74l8.45-8.45c0.69-0.69,1.69-1.1,2.66-1.1c1.05,0,1.99,0.38,2.72,1.11l14.8,14.8
			c1.48,1.48,1.48,3.9,0,5.38l-8.45,8.45L71.2,12.74z"/>
		<path class="st1" d="M82.31,4.49c0.71,0,1.32,0.25,1.8,0.72l14.8,14.8c0.48,0.48,0.74,1.11,0.74,1.77s-0.26,1.3-0.74,1.77
			l-7.53,7.53L73.04,12.74l7.53-7.53C81.02,4.76,81.67,4.49,82.31,4.49 M82.31,1.89c-1.28,0-2.61,0.51-3.58,1.49l-9.37,9.37
			l22.02,22.02l9.37-9.37c2-2,2-5.22,0-7.22l-14.8-14.8C84.92,2.36,83.64,1.89,82.31,1.89L82.31,1.89z"/>
	</g>
	<g>
		<path class="st0" d="M8.57,95.56V75.37l55.31-55.31l11.18,11.19l9,8.99L28.75,95.56H8.57z M16.65,78.72v8.76h8.76l47.23-47.23
			l-8.76-8.76L16.65,78.72z"/>
		<path class="st1" d="M63.88,21.9l10.27,10.27l8.08,8.07L28.21,94.26H9.87V75.91L63.88,21.9 M15.35,88.78h2.6h6.92h1.08l0.76-0.76
			l45.93-45.93l1.84-1.84l-1.84-1.84l-2.36-2.36l-4.56-4.56l-1.84-1.84l-1.84,1.84L16.11,77.42l-0.76,0.76v1.08v6.92V88.78
			 M63.88,18.23L7.27,74.83v22.02h22.02L85.9,40.25l-9.92-9.91L63.88,18.23L63.88,18.23z M17.95,86.18v-6.92l45.93-45.93l4.56,4.56
			l2.36,2.36L24.87,86.18H17.95L17.95,86.18z"/>
	</g>
</g>
</svg>
