<?xml version="1.0" encoding="utf-8"?>
<!-- Generator: Adobe Illustrator 24.0.0, SVG Export Plug-In . SVG Version: 6.00 Build 0)  -->
<svg version="1.1" id="Capa_1" xmlns="http://www.w3.org/2000/svg" xmlns:xlink="http://www.w3.org/1999/xlink" x="0px" y="0px"
	 viewBox="0 0 121.31 121.31" style="enable-background:new 0 0 121.31 121.31;" xml:space="preserve">
<style type="text/css">
	.st0{fill:#203F4C;}
	.st1{fill:#FFFFFF;}
</style>
<path class="st0" d="M60.66,0C27.16,0,0,27.16,0,60.66s27.16,60.66,60.66,60.66s60.66-27.16,60.66-60.66S94.16,0,60.66,0z
	 M17.54,66.86c-4.45-4.45-4.12-11.99,0.73-16.84l31.01-31.01l11.37,11.37l-39.8,39.8L17.54,66.86z M39.77,89.06l-0.06,0.05
	l-7.24-7.35l-4.04-4.04l0.03-0.03l-0.01-0.01l6.2-6.18l26.01-26.01l11.37,11.37L39.81,89.09L39.77,89.06z M67.56,99.25
	c-4.85,4.85-12.4,5.18-16.84,0.73l-3.32-3.32l47.38-47.38l11.37,11.37L67.56,99.25z"/>
</svg>
