<?xml version="1.0" encoding="utf-8"?>
<!-- Generator: Adobe Illustrator 24.0.0, SVG Export Plug-In . SVG Version: 6.00 Build 0)  -->
<svg version="1.1" id="Capa_1" xmlns="http://www.w3.org/2000/svg" xmlns:xlink="http://www.w3.org/1999/xlink" x="0px" y="0px"
	 viewBox="0 0 75.58 68.6" style="enable-background:new 0 0 75.58 68.6;" xml:space="preserve">
<style type="text/css">
	.st0{fill:#203F4C;}
</style>
<g>
	<g>
		<g>
			<path class="st0" d="M27.82,43.79h41.2v8.26h-47.5L9.51,8.25H0V0h12.35c2.04,0,3.83,1.36,4.37,3.33l1.16,4.26h57.7l-7.15,26.07
				c-0.84,3.06-3.61,5.18-6.79,5.18H26.46L27.82,43.79z"/>
		</g>
	</g>
	<g>
		<g>
			<path class="st0" d="M37.66,61.67c0,3.82-3.11,6.93-6.94,6.93c-3.81,0-6.92-3.11-6.92-6.93c0-3.82,3.11-6.93,6.92-6.93
				C34.55,54.74,37.66,57.84,37.66,61.67z"/>
			<path class="st0" d="M64.22,61.67c0,3.82-3.11,6.93-6.92,6.93c-3.83,0-6.94-3.11-6.94-6.93c0-3.82,3.11-6.93,6.94-6.93
				C61.12,54.74,64.22,57.84,64.22,61.67z"/>
		</g>
	</g>
</g>
</svg>
