<?xml version="1.0" encoding="utf-8"?>
<!-- Generator: Adobe Illustrator 24.0.0, SVG Export Plug-In . SVG Version: 6.00 Build 0)  -->
<svg version="1.1" id="Capa_1" xmlns="http://www.w3.org/2000/svg" xmlns:xlink="http://www.w3.org/1999/xlink" x="0px" y="0px"
	 viewBox="0 0 99.44 99.44" style="enable-background:new 0 0 99.44 99.44;" xml:space="preserve">
<style type="text/css">
	.st0{fill:#FFFFFF;}
</style>
<path class="st0" d="M86.04,0H13.4C6,0,0,6,0,13.4v72.64c0,7.4,6,13.4,13.4,13.4h35.83l0.06-35.53h-9.23c-1.2,0-2.17-0.97-2.18-2.17
	l-0.04-11.45c0-1.21,0.97-2.19,2.18-2.19h9.22V37.03c0-12.84,7.84-19.84,19.3-19.84h9.4c1.2,0,2.18,0.98,2.18,2.18v9.66
	c0,1.2-0.97,2.18-2.18,2.18l-5.77,0c-6.23,0-7.44,2.96-7.44,7.31v9.58h13.69c1.3,0,2.32,1.14,2.16,2.43l-1.36,11.45
	c-0.13,1.1-1.06,1.92-2.16,1.92H64.79l-0.06,35.53h21.32c7.4,0,13.4-6,13.4-13.4V13.4C99.44,6,93.44,0,86.04,0z"/>
</svg>
