<?xml version="1.0" encoding="utf-8"?>
<!-- Generator: Adobe Illustrator 24.0.0, SVG Export Plug-In . SVG Version: 6.00 Build 0)  -->
<svg version="1.1" id="Capa_1" xmlns="http://www.w3.org/2000/svg" xmlns:xlink="http://www.w3.org/1999/xlink" x="0px" y="0px"
	 viewBox="0 0 99.04 99.04" style="enable-background:new 0 0 99.04 99.04;" xml:space="preserve">
<style type="text/css">
	.st0{fill:#FFFFFF;}
</style>
<g>
	<path class="st0" d="M71.71,0H27.33C12.26,0,0,12.26,0,27.33v44.38c0,15.07,12.26,27.33,27.33,27.33h44.38
		c15.07,0,27.33-12.26,27.33-27.33V27.33C99.04,12.26,86.78,0,71.71,0z M90.26,71.71c0,10.23-8.32,18.54-18.55,18.54H27.33
		c-10.23,0-18.54-8.32-18.54-18.54V27.33c0-10.23,8.32-18.54,18.54-18.54h44.38c10.23,0,18.55,8.32,18.55,18.54L90.26,71.71
		L90.26,71.71z"/>
	<path class="st0" d="M49.52,24C35.45,24,24,35.45,24,49.52c0,14.07,11.45,25.52,25.52,25.52S75.04,63.6,75.04,49.52
		C75.04,35.45,63.59,24,49.52,24z M49.52,66.26c-9.23,0-16.73-7.51-16.73-16.73c0-9.23,7.51-16.73,16.73-16.73
		s16.73,7.51,16.73,16.73C66.26,58.75,58.75,66.26,49.52,66.26z"/>
	<path class="st0" d="M76.11,16.55c-1.69,0-3.36,0.69-4.55,1.89c-1.2,1.2-1.89,2.86-1.89,4.56c0,1.69,0.69,3.36,1.89,4.56
		c1.2,1.2,2.86,1.89,4.55,1.89c1.7,0,3.36-0.69,4.56-1.89c1.2-1.2,1.89-2.86,1.89-4.56c0-1.7-0.69-3.36-1.89-4.56
		C79.48,17.24,77.81,16.55,76.11,16.55z"/>
</g>
</svg>
